<?xml version="1.0" encoding="iso-8859-1"?>
<!-- Generator: Adobe Illustrator 18.0.0, SVG Export Plug-In . SVG Version: 6.00 Build 0)  -->
<!DOCTYPE svg PUBLIC "-//W3C//DTD SVG 1.1//EN" "http://www.w3.org/Graphics/SVG/1.1/DTD/svg11.dtd">
<svg version="1.1" id="Capa_1" xmlns="http://www.w3.org/2000/svg" xmlns:xlink="http://www.w3.org/1999/xlink" x="0px" y="0px"
	 viewBox="0 0 292.669 292.669" style="enable-background:new 0 0 292.669 292.669;" xml:space="preserve">
<g>
	<path d="M284.318,109.893c-0.838-1.761-1.748-3.47-2.691-5.155c2.784-4.477,4.287-9.661,4.287-14.997
		c0-15.675-12.753-28.428-28.428-28.428c-6.529,0-12.802,2.252-17.81,6.285c-1.171-0.476-2.35-0.935-3.548-1.361
		c-9.944-3.538-20.383-5.186-30.836-4.892c-0.143-0.009-0.288-0.014-0.433-0.014h-31.577c-3.59,0-6.5,2.91-6.5,6.5v2.482
		c0,3.804-2.848,7.019-6.624,7.479c-2.303,0.281-4.574-0.5-6.221-2.135c-1.433-1.422-2.223-3.32-2.223-5.344V67.83
		c0-3.59-2.91-6.5-6.5-6.5H6.5c-1.75,0-3.425,0.705-4.648,1.956c-1.223,1.251-1.89,2.942-1.851,4.691l1.035,45.611
		c0.069,3.045,2.244,5.634,5.232,6.228l57.113,11.349c29.533,5.868,54.367,25.163,68.133,52.937
		c9.508,19.183,25.763,33.964,45.772,41.621c9.77,3.738,19.985,5.634,30.362,5.635c0.002,0,0.002,0,0.005,0
		c35.863,0,68.054-22.723,80.101-56.543C295.334,153.537,294.113,130.481,284.318,109.893z M257.486,74.313
		c8.507,0,15.428,6.921,15.428,15.428c0,0.691-0.062,1.374-0.153,2.052c-5.497-6.615-11.951-12.317-19.167-16.959
		C254.854,74.504,256.157,74.313,257.486,74.313z M275.509,170.452c-10.208,28.656-37.478,47.907-67.859,47.906
		c-8.783,0-17.436-1.607-25.716-4.776c-16.949-6.485-30.717-19.005-38.771-35.252c-15.571-31.416-43.726-53.254-77.247-59.914
		l-52-10.333L13.15,74.33h125.954c0.784,3.98,2.733,7.634,5.677,10.554c3.876,3.846,9.005,5.964,14.443,5.964
		c0.832,0,1.675-0.051,2.505-0.152c8.93-1.087,15.955-7.828,17.658-16.365h24.833c0.288,0.029,0.579,0.037,0.875,0.027
		c9.034-0.328,18.071,1.065,26.676,4.127c18.017,6.41,32.51,19.548,40.81,36.993C280.881,132.927,281.921,152.45,275.509,170.452z"
		/>
	<path d="M207.686,113.102c-18.335,0-33.252,14.917-33.252,33.252s14.917,33.252,33.252,33.252
		c18.335,0,33.252-14.917,33.252-33.252S226.021,113.102,207.686,113.102z M207.686,166.607c-11.167,0-20.252-9.085-20.252-20.252
		s9.085-20.252,20.252-20.252s20.252,9.085,20.252,20.252S218.853,166.607,207.686,166.607z"/>
</g>
<g>
</g>
<g>
</g>
<g>
</g>
<g>
</g>
<g>
</g>
<g>
</g>
<g>
</g>
<g>
</g>
<g>
</g>
<g>
</g>
<g>
</g>
<g>
</g>
<g>
</g>
<g>
</g>
<g>
</g>
</svg>
