<?xml version="1.0" encoding="utf-8"?>
<!-- Generator: Adobe Illustrator 16.0.0, SVG Export Plug-In . SVG Version: 6.00 Build 0)  -->
<!DOCTYPE svg PUBLIC "-//W3C//DTD SVG 1.1//EN" "http://www.w3.org/Graphics/SVG/1.1/DTD/svg11.dtd" [
	<!ENTITY ns_flows "http://ns.adobe.com/Flows/1.0/">
	<!ENTITY ns_extend "http://ns.adobe.com/Extensibility/1.0/">
	<!ENTITY ns_ai "http://ns.adobe.com/AdobeIllustrator/10.0/">
	<!ENTITY ns_graphs "http://ns.adobe.com/Graphs/1.0/">
	<!ENTITY ns_vars "http://ns.adobe.com/Variables/1.0/">
	<!ENTITY ns_imrep "http://ns.adobe.com/ImageReplacement/1.0/">
	<!ENTITY ns_sfw "http://ns.adobe.com/SaveForWeb/1.0/">
	<!ENTITY ns_custom "http://ns.adobe.com/GenericCustomNamespace/1.0/">
	<!ENTITY ns_adobe_xpath "http://ns.adobe.com/XPath/1.0/">
]>
<svg version="1.1" id="Capa_1" xmlns:x="&ns_extend;" xmlns:i="&ns_ai;" xmlns:graph="&ns_graphs;"
	 xmlns="http://www.w3.org/2000/svg" xmlns:xlink="http://www.w3.org/1999/xlink" xmlns:a="http://ns.adobe.com/AdobeSVGViewerExtensions/3.0/"
	 x="0px" y="0px" width="100%" height="100%" viewBox="0 252.982 427.5 296.518"
	 enable-background="new 0 252.982 427.5 296.518" xml:space="preserve">
<metadata>
	<sfw  xmlns="&ns_sfw;">
		<slices></slices>
		<sliceSourceBounds  height="286.035" width="418.896" bottomLeftOrigin="true" y="253.482" x="-0.5"></sliceSourceBounds>
	</sfw>
</metadata>
<g>
	<rect x="96.913" y="387.703" transform="matrix(-0.7071 -0.7071 0.7071 -0.7071 -79.86 795.354)" width="55.76" height="53.027"/>
	<path d="M164.983,255.737c-3.673-3.672-9.627-3.673-13.299-0.001L2.755,404.664C0.991,406.43,0,408.821,0,411.315
		c0,2.493,0.991,4.886,2.755,6.649l118.298,118.298c1.764,1.767,4.155,2.755,6.649,2.755c2.495,0,4.886-0.99,6.649-2.755
		L276.63,393.985l126.212,126.211c1.836,1.836,4.243,2.753,6.649,2.753c2.405,0,4.812-0.919,6.648-2.753
		c3.675-3.675,3.675-9.627,0-13.302L164.983,255.737z M233.542,410.475l-32.785-32.783l-37.497,37.496l32.785,32.784l-37.495,37.497
		l-32.785-32.785L94.919,483.53L55.491,444.1l30.846-30.846l-32.784-32.785l37.497-37.495l32.785,32.784l37.497-37.497
		l-32.785-32.785l29.79-29.79l32.785,32.784l-29.79,29.79l39.43,39.43l29.79-29.791l32.785,32.785L233.542,410.475z"/>
</g>
</svg>
