<?xml version="1.0" encoding="utf-8"?>
<!-- Generator: Adobe Illustrator 16.0.0, SVG Export Plug-In . SVG Version: 6.00 Build 0)  -->
<!DOCTYPE svg PUBLIC "-//W3C//DTD SVG 1.1//EN" "http://www.w3.org/Graphics/SVG/1.1/DTD/svg11.dtd">
<svg version="1.1" id="Capa_1" xmlns="http://www.w3.org/2000/svg" xmlns:xlink="http://www.w3.org/1999/xlink" x="0px" y="0px"
	 width="100%" height="100%" viewBox="0 0 612 512" enable-background="new 0 0 612 512" xml:space="preserve">
<path d="M534.406,339.474l-13.838-64.044l-64.195-13.688l-13.788-64.145l-64.169-13.738l-13.789-64.145l-64.144-13.763l-13.65-64.22
	l-65.212-13.638l-99.934,288.624l-21.059,21.047c-32.047,32.047-26.785,89.284,5.262,121.307
	c17.33,17.329,42.018,26.823,66.104,26.823c20.456,0,40.485-6.856,55.203-21.549l18.686-18.711L534.406,339.474z M184.928,251.946
	l24.399,5.25l-36.706,30.313L184.928,251.946z M311.006,380.562l-60.866,22.403l-3.428-3.416l58.644-45.232L311.006,380.562z
	 M231.303,384.128l-17.568-17.58l38.866-38.854l40.85,8.766L231.303,384.128z M226.343,271.235l9.205,42.872l-37.133,37.12
	l-31.168-31.144L226.343,271.235z M488.145,307.954l1.457,6.906l-162.748,59.875l-6.479-30.264l112.717-52.441
	c4.471,3.441,9.493,6.204,15.22,7.435L488.145,307.954z M410.111,230.097l8.564,39.757c0.301,1.532,1.08,2.839,1.582,4.295
	L312.99,324.254c-0.754-0.428-1.406-1.03-2.26-1.231l-44.04-9.443l95.175-95.148c2.712,1.293,5.475,2.512,8.488,3.151
	L410.111,230.097z M332.179,152.201l8.514,39.758c0.93,4.357,2.788,8.301,5.048,11.968l-96.116,96.091l-9.042-42.144
	c0.176-0.352,0.54-0.578,0.678-0.954l41.415-116.861c3.039,1.582,6.266,2.875,9.72,3.616L332.179,152.201z M246.962,72.812
	l7.359,1.532l8.426,39.632c0.64,3.026,1.858,5.813,3.165,8.526l-42.734,120.553l-32.738-7.02L246.962,72.812z M171.994,447.318
	c-14.592,0-29.109-5.802-38.841-15.547c-8.866-8.84-14.63-22.151-15.421-35.613c-0.439-7.384,0.314-21.247,10.172-31.117
	l0.804-0.804l72.018,72.03l-0.791,0.778C190.993,445.987,178.599,447.318,171.994,447.318z"/>
</svg>
