<?xml version="1.0" encoding="utf-8"?>
<!-- Generator: Adobe Illustrator 16.0.0, SVG Export Plug-In . SVG Version: 6.00 Build 0)  -->
<!DOCTYPE svg PUBLIC "-//W3C//DTD SVG 1.1//EN" "http://www.w3.org/Graphics/SVG/1.1/DTD/svg11.dtd" [
	<!ENTITY ns_flows "http://ns.adobe.com/Flows/1.0/">
	<!ENTITY ns_extend "http://ns.adobe.com/Extensibility/1.0/">
	<!ENTITY ns_ai "http://ns.adobe.com/AdobeIllustrator/10.0/">
	<!ENTITY ns_graphs "http://ns.adobe.com/Graphs/1.0/">
	<!ENTITY ns_vars "http://ns.adobe.com/Variables/1.0/">
	<!ENTITY ns_imrep "http://ns.adobe.com/ImageReplacement/1.0/">
	<!ENTITY ns_sfw "http://ns.adobe.com/SaveForWeb/1.0/">
	<!ENTITY ns_custom "http://ns.adobe.com/GenericCustomNamespace/1.0/">
	<!ENTITY ns_adobe_xpath "http://ns.adobe.com/XPath/1.0/">
]>
<svg version="1.1" id="Capa_1" xmlns:x="&ns_extend;" xmlns:i="&ns_ai;" xmlns:graph="&ns_graphs;"
	 xmlns="http://www.w3.org/2000/svg" xmlns:xlink="http://www.w3.org/1999/xlink" xmlns:a="http://ns.adobe.com/AdobeSVGViewerExtensions/3.0/"
	 x="0px" y="0px" width="100%" height="100%" viewBox="0 0 612 617" enable-background="new 0 0 612 617" xml:space="preserve">
<metadata>
	<sfw  xmlns="&ns_sfw;">
		<slices></slices>
		<sliceSourceBounds  height="606.692" width="606.692" bottomLeftOrigin="true" y="93.154" x="2.154"></sliceSourceBounds>
	</sfw>
</metadata>
<path d="M306,5.154C138.467,5.154,2.654,140.967,2.654,308.5S138.467,611.846,306,611.846S609.346,476.033,609.346,308.5
	S473.533,5.154,306,5.154z M566.829,190.065c7.377,7.376,3.543,23.17-8.563,35.276c-12.104,12.106-27.898,15.94-35.274,8.563
	c-7.377-7.377-3.543-23.17,8.562-35.276C543.659,186.523,559.453,182.688,566.829,190.065z M516.617,125.686
	c2.851-2.85,5.905-5.235,9.006-7.13c7.926,9.156,15.278,18.822,22.023,28.926c-1.295,1.684-2.732,3.333-4.316,4.917
	c-12.106,12.107-27.9,15.939-35.276,8.563S504.511,137.792,516.617,125.686z M510.967,245.926c7.377,7.376,3.543,23.17-8.562,35.276
	c-12.105,12.106-27.899,15.94-35.276,8.563c-7.376-7.377-3.542-23.171,8.563-35.277C487.797,242.384,503.591,238.55,510.967,245.926
	z M494.036,173.13c7.376,7.376,3.541,23.17-8.564,35.276c-12.104,12.106-27.898,15.939-35.274,8.564
	c-7.376-7.376-3.541-23.169,8.562-35.276C470.866,169.588,486.659,165.754,494.036,173.13z M446.541,337.062
	c-12.105,12.104-27.898,15.938-35.275,8.562c-7.376-7.376-3.542-23.17,8.564-35.275c12.104-12.104,27.896-15.938,35.272-8.562
	S458.646,324.957,446.541,337.062z M441.279,108.354c12.104-12.106,27.897-15.94,35.274-8.563c7.376,7.376,3.542,23.17-8.562,35.276
	c-12.105,12.106-27.899,15.94-35.276,8.563C425.339,136.254,429.173,120.46,441.279,108.354z M438.175,228.995
	c7.377,7.376,3.543,23.17-8.562,35.276c-12.106,12.105-27.9,15.939-35.276,8.563c-7.377-7.376-3.543-23.17,8.563-35.276
	C415.005,225.452,430.799,221.618,438.175,228.995z M390.681,392.924c-12.104,12.105-27.897,15.939-35.274,8.563
	c-7.376-7.377-3.543-23.171,8.562-35.276c12.105-12.104,27.899-15.938,35.275-8.562C406.62,365.024,402.786,380.818,390.681,392.924
	z M385.418,164.215c12.106-12.106,27.9-15.94,35.276-8.564c7.377,7.377,3.543,23.171-8.563,35.277
	c-12.104,12.106-27.897,15.94-35.274,8.563C369.478,192.114,373.312,176.321,385.418,164.215z M382.312,284.857
	c7.377,7.377,3.543,23.17-8.563,35.277c-12.106,12.105-27.899,15.94-35.276,8.563s-3.542-23.171,8.563-35.276
	C359.143,281.314,374.938,277.48,382.312,284.857z M329.556,220.079c12.106-12.106,27.9-15.94,35.276-8.564
	c7.377,7.377,3.543,23.17-8.563,35.277c-12.104,12.106-27.897,15.94-35.274,8.563S317.45,232.186,329.556,220.079z M326.451,340.719
	c7.377,7.377,3.542,23.171-8.563,35.276c-12.104,12.104-27.9,15.938-35.277,8.562c-7.376-7.376-3.542-23.17,8.564-35.274
	C303.281,337.177,319.074,333.343,326.451,340.719z M273.696,275.932c12.106-12.105,27.9-15.939,35.277-8.562
	c7.376,7.376,3.542,23.17-8.562,35.275c-12.106,12.106-27.9,15.94-35.276,8.563C257.756,303.832,261.59,288.038,273.696,275.932z
	 M217.833,331.795c12.106-12.104,27.9-15.938,35.277-8.562c7.376,7.376,3.542,23.17-8.564,35.274
	c-12.106,12.105-27.9,15.94-35.276,8.563S205.728,343.9,217.833,331.795z M161.971,387.662c12.106-12.106,27.9-15.941,35.276-8.564
	c7.376,7.376,3.542,23.169-8.564,35.275c-12.106,12.104-27.899,15.939-35.275,8.562
	C146.031,415.562,149.865,399.768,161.971,387.662z M97.546,478.795c-7.377-7.376-3.542-23.17,8.563-35.276
	c12.106-12.104,27.9-15.938,35.276-8.562c7.376,7.377,3.542,23.171-8.563,35.276C120.717,482.338,104.923,486.172,97.546,478.795z
	 M152.968,543.578c-2.556,2.556-5.277,4.739-8.048,6.53c-9.629-6.436-18.85-13.429-27.621-20.936
	c2.083-4.217,5.098-8.452,8.957-12.311c12.107-12.105,27.9-15.938,35.276-8.562C168.908,515.678,165.074,531.472,152.968,543.578z
	 M170.888,496.28c-7.376-7.376-3.542-23.169,8.564-35.275c12.106-12.104,27.899-15.938,35.275-8.562s3.542,23.17-8.564,35.273
	C194.057,499.822,178.264,503.657,170.888,496.28z M223.097,560.506c-12.106,12.106-27.9,15.94-35.276,8.564
	c-7.376-7.377-3.542-23.171,8.563-35.277c12.106-12.104,27.9-15.939,35.277-8.562C239.037,532.606,235.203,548.4,223.097,560.506z
	 M226.751,440.417c-7.376-7.376-3.542-23.17,8.564-35.276c12.106-12.104,27.9-15.938,35.276-8.562
	c7.376,7.376,3.542,23.17-8.564,35.274C249.921,443.96,234.127,447.794,226.751,440.417z M243.68,513.213
	c-7.376-7.376-3.542-23.169,8.564-35.275c12.106-12.104,27.9-15.938,35.276-8.562s3.542,23.17-8.564,35.275
	C266.85,516.755,251.057,520.59,243.68,513.213z M296.437,577.99c-12.106,12.104-27.899,15.939-35.276,8.562
	c-7.376-7.376-3.542-23.169,8.564-35.273c12.106-12.106,27.9-15.94,35.276-8.564S308.543,565.885,296.437,577.99z M299.544,457.348
	c-7.376-7.376-3.542-23.169,8.563-35.273c12.104-12.105,27.897-15.939,35.273-8.563s3.542,23.17-8.562,35.275
	C322.713,460.89,306.92,464.724,299.544,457.348z M317.025,530.685c-7.376-7.377-3.542-23.171,8.562-35.275
	c12.105-12.105,27.899-15.939,35.276-8.563c7.376,7.377,3.542,23.171-8.564,35.276C340.196,534.227,324.402,538.061,317.025,530.685
	z M372.63,591.17c-13.61,3.196-27.591,5.426-41.864,6.631c-2.188-8.197,2.208-20.041,11.762-29.592
	c12.104-12.105,27.898-15.94,35.273-8.562C384.438,566.28,381.996,579.724,372.63,591.17z M372.885,474.831
	c-7.377-7.377-3.542-23.17,8.563-35.276c12.104-12.104,27.898-15.938,35.274-8.562c7.377,7.376,3.543,23.17-8.562,35.274
	C396.055,478.373,380.262,482.208,372.885,474.831z M425.094,539.051c-12.104,12.106-27.897,15.94-35.274,8.563
	c-7.377-7.376-3.543-23.17,8.562-35.276c12.106-12.104,27.9-15.938,35.276-8.562C441.034,511.15,437.2,526.944,425.094,539.051z
	 M428.746,418.977c-7.377-7.377-3.543-23.171,8.562-35.275c12.106-12.105,27.9-15.939,35.276-8.563
	c7.377,7.377,3.543,23.171-8.562,35.276C451.916,422.519,436.122,426.354,428.746,418.977z M480.954,483.199
	c-12.106,12.104-27.899,15.938-35.276,8.562c-7.376-7.376-3.543-23.17,8.563-35.273c12.104-12.105,27.897-15.939,35.273-8.563
	C496.894,455.3,493.06,471.094,480.954,483.199z M484.608,363.116c-7.376-7.377-3.542-23.171,8.562-35.276
	c12.105-12.104,27.899-15.938,35.276-8.562c7.376,7.377,3.542,23.171-8.564,35.274C507.779,366.658,491.985,370.492,484.608,363.116
	z M536.814,427.337c-12.105,12.105-27.899,15.939-35.275,8.563c-7.376-7.377-3.542-23.171,8.562-35.275
	c12.106-12.105,27.899-15.939,35.275-8.563S548.92,415.231,536.814,427.337z M540.469,307.245
	c-7.377-7.376-3.542-23.17,8.563-35.276c12.104-12.105,27.898-15.939,35.274-8.564c7.377,7.378,3.543,23.171-8.562,35.277
	C563.639,310.787,547.846,314.621,540.469,307.245z M557.408,380.04c-7.377-7.376-3.543-23.17,8.562-35.276
	c9.46-9.46,21.172-13.869,29.36-11.823c-1.198,14.362-3.432,28.435-6.646,42.129C577.294,384.268,563.995,386.628,557.408,380.04z"
	/>
</svg>
