<?xml version="1.0" encoding="utf-8"?>
<!-- Generator: Adobe Illustrator 16.0.0, SVG Export Plug-In . SVG Version: 6.00 Build 0)  -->
<!DOCTYPE svg PUBLIC "-//W3C//DTD SVG 1.1//EN" "http://www.w3.org/Graphics/SVG/1.1/DTD/svg11.dtd">
<svg version="1.1" id="Capa_1" xmlns="http://www.w3.org/2000/svg" xmlns:xlink="http://www.w3.org/1999/xlink" x="0px" y="0px"
	 width="100%" height="100%" viewBox="0 0 612 792" enable-background="new 0 0 612 792" xml:space="preserve">
<path d="M517.767,184.234C461.246,127.713,386.039,96.586,306,96.586s-155.246,31.127-211.766,87.647S6.586,315.961,6.586,396
	s31.127,155.246,87.647,211.767S225.961,695.414,306,695.414s155.246-31.127,211.767-87.647S605.414,476.039,605.414,396
	S574.287,240.754,517.767,184.234z M297,401.196v95.038c-95.594-39.821-185.313-92.29-266.913-156.076
	c5.401-27.024,14.72-52.948,27.674-77.088L297,401.196z M306,396L306,396L306,396L306,396z M315,401.196l82.215-47.468
	c13.601,102.561,13.343,206.398-0.758,308.913c-25.98,8.773-53.36,13.74-81.457,14.615V401.196z M513.882,286.37l40.357-23.3
	c21.671,40.385,33.175,85.763,33.175,132.93c0,67.777-23.755,131.86-67.305,182.738C539.787,482.303,537.705,381.987,513.882,286.37
	z M545.209,247.499L306,385.607l-82.296-47.514c82.243-62.887,172.5-114.371,268.504-153.171c4.377,3.871,8.664,7.873,12.831,12.04
	C520.5,212.423,533.924,229.382,545.209,247.499z M106.962,196.962c53.121-53.121,123.807-82.375,199.038-82.375
	c17.636,0,35.017,1.628,51.986,4.774c-93.663,30.98-179.831,82.863-251.018,151.335l-40.177-23.196
	C78.077,229.382,91.5,212.424,106.962,196.962z M40.263,489.087C113.949,554.815,202.027,603.578,297,631.036v46.221
	c-71.854-2.238-139.042-31.222-190.038-82.218C76.581,564.657,54.022,528.523,40.263,489.087z"/>
</svg>
