<?xml version="1.0" encoding="utf-8"?>
<!-- Generator: Adobe Illustrator 16.0.0, SVG Export Plug-In . SVG Version: 6.00 Build 0)  -->
<!DOCTYPE svg PUBLIC "-//W3C//DTD SVG 1.1//EN" "http://www.w3.org/Graphics/SVG/1.1/DTD/svg11.dtd" [
	<!ENTITY ns_flows "http://ns.adobe.com/Flows/1.0/">
	<!ENTITY ns_extend "http://ns.adobe.com/Extensibility/1.0/">
	<!ENTITY ns_ai "http://ns.adobe.com/AdobeIllustrator/10.0/">
	<!ENTITY ns_graphs "http://ns.adobe.com/Graphs/1.0/">
	<!ENTITY ns_vars "http://ns.adobe.com/Variables/1.0/">
	<!ENTITY ns_imrep "http://ns.adobe.com/ImageReplacement/1.0/">
	<!ENTITY ns_sfw "http://ns.adobe.com/SaveForWeb/1.0/">
	<!ENTITY ns_custom "http://ns.adobe.com/GenericCustomNamespace/1.0/">
	<!ENTITY ns_adobe_xpath "http://ns.adobe.com/XPath/1.0/">
]>
<svg version="1.1" id="Capa_1" xmlns:x="&ns_extend;" xmlns:i="&ns_ai;" xmlns:graph="&ns_graphs;"
	 xmlns="http://www.w3.org/2000/svg" xmlns:xlink="http://www.w3.org/1999/xlink" xmlns:a="http://ns.adobe.com/AdobeSVGViewerExtensions/3.0/"
	 x="0px" y="0px" width="100%" height="100%" viewBox="0 0 612 712" enable-background="new 0 0 612 712" xml:space="preserve">
<metadata>
	<sfw  xmlns="&ns_sfw;">
		<slices></slices>
		<sliceSourceBounds  height="699.345" width="551.406" bottomLeftOrigin="true" y="46.155" x="27.651"></sliceSourceBounds>
	</sfw>
</metadata>
<path d="M512.214,475.758c44.26-46.049,67.343-114.275,67.343-200.872c0-87.084-23.54-155.112-67.434-200.849
	c-5.146-5.572-25.844-22.64-25.844-22.64C446.672,22.355,395.23,7,333.279,7C203.217,7,118.684,74.245,94.276,196.652
	c-41.472,17.201-64.848,51.411-66.125,97.307c0,0-0.004,9.047,0.072,10.711c3.171,71.9,40.822,138.005,103.291,181.361
	c18.114,12.57,39.302,23.33,63.113,32.055v132.635c0,30.67,24.955,55.625,55.63,55.625h164.929
	c30.674,0,55.629-24.955,55.629-55.625V508.717c5.361-3.219,10.513-6.689,15.497-10.334
	C498.056,490.363,512.214,475.758,512.214,475.758z M347.688,527.812h-26.549v-38.967c0-7.324,5.957-13.275,13.276-13.275
	c7.32,0,13.275,5.957,13.275,13.275v38.967H347.688z M347.688,561.215v28.264h-26.549v-28.264H347.688z M347.688,622.881v50.062
	h-26.549v-50.062H347.688z M446.212,484.293l-8.798,4.723v161.701c0,12.273-9.95,22.227-22.227,22.227h-34.093v-50.062h18.569
	c9.145,0,17.12-7.049,17.396-16.188c0.281-9.457-7.299-17.217-16.692-17.217h-19.271v-28.262h18.569
	c9.145,0,17.12-7.049,17.396-16.189c0.281-9.455-7.299-17.215-16.692-17.215h-19.271v-37.82c0-25.277-19.616-46.834-44.878-47.791
	c-26.555-1.004-48.479,20.305-48.479,46.645v38.967h-18.569c-9.145,0-17.12,7.047-17.396,16.188
	c-0.281,9.455,7.3,17.217,16.693,17.217h19.27v28.262h-18.574c-9.145,0-17.12,7.049-17.396,16.189
	c-0.283,9.455,7.3,17.215,16.693,17.215h19.27v50.061h-37.476c-12.277,0-22.229-9.949-22.229-22.23V494.105l-11.498-3.771
	c-25.454-8.348-47.65-19.027-65.973-31.742c-53.832-37.359-86.258-93.996-88.966-155.398c-0.033-0.868-0.05-5.053-0.046-8.517
	c0.989-33.224,16.961-56.081,47.514-67.965c11.423-4.445,32.637-6.366,44.551-6.366c42.069,0,92.216,12.081,92.216,69.633
	c0,57.551-50.147,69.631-92.216,69.631c-5.971,0-11.86-0.264-17.514-0.779c-9.544-0.867-18.435,6.416-18.782,16
	c-0.316,8.77,6.271,16.375,15.125,17.211c6.853,0.645,13.975,0.971,21.173,0.971c47.138,0,82.874-13.846,103.962-38.817
	c3.609,0.625,24.363,3.985,52.479,3.985c39.865,0,94.441-6.77,135.586-37.71c3.136-2.354,6.102-4.843,8.98-7.403l29.619,25.674
	c3.157,2.734,7.054,4.08,10.931,4.08c4.839,0,9.652-2.091,12.972-6.174c5.771-7.086,4.352-17.622-2.55-23.607l-28.902-25.046
	c13.479-19.896,21.776-43.693,24.743-71.194c0.988-9.137-5.286-17.853-14.399-19.019c-9.335-1.196-17.773,5.523-18.743,14.831
	c-3.731,35.759-17.682,62.285-42.641,81.096c-47.868,36.072-122.577,32.158-151.073,29.063c3.064-10.009,4.661-20.955,4.661-32.79
	c0-64.517-46.961-103.033-125.62-103.033c-8.029,0-15.735,0.409-23.115,1.184C155.289,91.374,224.922,40.41,333.281,40.41
	c69.855,0,123.635,20.955,159.842,62.281c35.192,40.169,53.033,98.106,53.033,172.204
	C546.155,345.927,528.817,439.924,446.212,484.293z"/>
</svg>
