<?xml version="1.0" encoding="iso-8859-1"?>
<!-- Generator: Adobe Illustrator 18.0.0, SVG Export Plug-In . SVG Version: 6.00 Build 0)  -->
<!DOCTYPE svg PUBLIC "-//W3C//DTD SVG 1.1//EN" "http://www.w3.org/Graphics/SVG/1.1/DTD/svg11.dtd">
<svg version="1.1" id="Capa_1" xmlns="http://www.w3.org/2000/svg" xmlns:xlink="http://www.w3.org/1999/xlink" x="0px" y="0px"
	 viewBox="0 0 302.935 302.935" style="enable-background:new 0 0 302.935 302.935;" xml:space="preserve">
<g>
	<path d="M151.468,20.55C79.279,20.55,20.55,79.279,20.55,151.468c0,72.188,58.729,130.917,130.918,130.917
		c72.188,0,130.917-58.729,130.917-130.917C282.385,79.279,223.655,20.55,151.468,20.55z M269.203,144.969h-25.014
		c-3.199-46.085-40.136-83.023-86.22-86.223V33.731C217.824,37,265.935,85.112,269.203,144.969z M151.468,158.816
		c-4.053,0-7.35-3.297-7.35-7.349c0-4.053,3.297-7.35,7.35-7.35c4.052,0,7.349,3.297,7.349,7.35
		C158.816,155.52,155.52,158.816,151.468,158.816z M144.969,132.201c-5.996,2.029-10.739,6.772-12.768,12.768h-23.317
		c2.821-18.559,17.526-33.265,36.085-36.085V132.201z M132.202,157.969c2.029,5.995,6.772,10.736,12.767,12.765v23.318
		c-18.558-2.82-33.263-17.525-36.084-36.083H132.202z M157.969,170.733c5.994-2.029,10.735-6.77,12.764-12.764h23.318
		c-2.821,18.557-17.526,33.261-36.082,36.083V170.733z M170.733,144.969c-2.028-5.995-6.77-10.738-12.765-12.767v-23.319
		c18.557,2.822,33.262,17.527,36.083,36.085H170.733z M144.969,95.781c-25.734,2.985-46.201,23.454-49.187,49.188h-23.98
		c3.148-38.909,34.258-70.02,73.167-73.167V95.781z M95.782,157.969c2.986,25.733,23.453,46.2,49.186,49.185v23.98
		c-38.908-3.148-70.018-34.256-73.166-73.165H95.782z M157.969,207.153c25.732-2.986,46.198-23.452,49.184-49.185h23.98
		c-3.149,38.907-34.257,70.016-73.164,73.165V207.153z M207.153,144.969c-2.985-25.733-23.452-46.201-49.185-49.188v-23.98
		c38.908,3.149,70.017,34.259,73.165,73.167H207.153z M144.969,33.731v25.014c-46.085,3.199-83.024,40.138-86.222,86.224H33.731
		C36.999,85.111,85.112,36.999,144.969,33.731z M33.732,157.969h25.015c3.2,46.084,40.138,83.021,86.222,86.221v25.014
		C85.112,265.936,37,217.824,33.732,157.969z M157.969,269.203v-25.014c46.083-3.2,83.021-40.137,86.22-86.22h25.014
		C265.934,217.823,217.823,265.934,157.969,269.203z"/>
	<path d="M151.468,0C67.948,0,0,67.948,0,151.468s67.948,151.467,151.468,151.467s151.467-67.947,151.467-151.467
		S234.987,0,151.468,0z M151.468,289.935C75.116,289.935,13,227.818,13,151.468C13,75.116,75.116,13,151.468,13
		c76.351,0,138.467,62.116,138.467,138.468C289.935,227.818,227.818,289.935,151.468,289.935z"/>
</g>
<g>
</g>
<g>
</g>
<g>
</g>
<g>
</g>
<g>
</g>
<g>
</g>
<g>
</g>
<g>
</g>
<g>
</g>
<g>
</g>
<g>
</g>
<g>
</g>
<g>
</g>
<g>
</g>
<g>
</g>
</svg>
