<?xml version="1.0" encoding="utf-8"?>
<!-- Generator: Adobe Illustrator 16.0.0, SVG Export Plug-In . SVG Version: 6.00 Build 0)  -->
<!DOCTYPE svg PUBLIC "-//W3C//DTD SVG 1.1//EN" "http://www.w3.org/Graphics/SVG/1.1/DTD/svg11.dtd" [
	<!ENTITY ns_flows "http://ns.adobe.com/Flows/1.0/">
	<!ENTITY ns_extend "http://ns.adobe.com/Extensibility/1.0/">
	<!ENTITY ns_ai "http://ns.adobe.com/AdobeIllustrator/10.0/">
	<!ENTITY ns_graphs "http://ns.adobe.com/Graphs/1.0/">
	<!ENTITY ns_vars "http://ns.adobe.com/Variables/1.0/">
	<!ENTITY ns_imrep "http://ns.adobe.com/ImageReplacement/1.0/">
	<!ENTITY ns_sfw "http://ns.adobe.com/SaveForWeb/1.0/">
	<!ENTITY ns_custom "http://ns.adobe.com/GenericCustomNamespace/1.0/">
	<!ENTITY ns_adobe_xpath "http://ns.adobe.com/XPath/1.0/">
]>
<svg version="1.1" id="Capa_1" xmlns:x="&ns_extend;" xmlns:i="&ns_ai;" xmlns:graph="&ns_graphs;"
	 xmlns="http://www.w3.org/2000/svg" xmlns:xlink="http://www.w3.org/1999/xlink" xmlns:a="http://ns.adobe.com/AdobeSVGViewerExtensions/3.0/"
	 x="0px" y="0px" width="100%" height="100%" viewBox="0 0 612 792" enable-background="new 0 0 612 792" xml:space="preserve">
<metadata>
	<sfw  xmlns="&ns_sfw;">
		<slices></slices>
		<sliceSourceBounds  height="587.692" width="587.692" bottomLeftOrigin="true" y="102.654" x="12.404"></sliceSourceBounds>
	</sfw>
</metadata>
<path d="M306.75,102.154c-162.287,0-293.846,131.56-293.846,293.846c0,162.287,131.56,293.846,293.846,293.846
	c162.287,0,293.846-131.559,293.846-293.846C600.596,233.713,469.037,102.154,306.75,102.154z M128.67,457.92
	c-34.197,0-61.92-27.723-61.92-61.92s27.723-61.92,61.92-61.92c34.198,0,61.92,27.723,61.92,61.92S162.868,457.92,128.67,457.92z
	 M306.75,636c-34.197,0-61.92-27.723-61.92-61.92s27.723-61.92,61.92-61.92s61.92,27.723,61.92,61.92S340.947,636,306.75,636z
	 M306.75,279.84c-34.197,0-61.92-27.723-61.92-61.92S272.553,156,306.75,156s61.92,27.723,61.92,61.92S340.947,279.84,306.75,279.84
	z M484.83,457.92c-34.197,0-61.92-27.723-61.92-61.92s27.723-61.92,61.92-61.92s61.92,27.723,61.92,61.92
	S519.027,457.92,484.83,457.92z"/>
</svg>
