<?xml version="1.0" encoding="utf-8"?>
<!-- Generator: Adobe Illustrator 16.0.0, SVG Export Plug-In . SVG Version: 6.00 Build 0)  -->
<!DOCTYPE svg PUBLIC "-//W3C//DTD SVG 1.1//EN" "http://www.w3.org/Graphics/SVG/1.1/DTD/svg11.dtd" [
	<!ENTITY ns_flows "http://ns.adobe.com/Flows/1.0/">
	<!ENTITY ns_extend "http://ns.adobe.com/Extensibility/1.0/">
	<!ENTITY ns_ai "http://ns.adobe.com/AdobeIllustrator/10.0/">
	<!ENTITY ns_graphs "http://ns.adobe.com/Graphs/1.0/">
	<!ENTITY ns_vars "http://ns.adobe.com/Variables/1.0/">
	<!ENTITY ns_imrep "http://ns.adobe.com/ImageReplacement/1.0/">
	<!ENTITY ns_sfw "http://ns.adobe.com/SaveForWeb/1.0/">
	<!ENTITY ns_custom "http://ns.adobe.com/GenericCustomNamespace/1.0/">
	<!ENTITY ns_adobe_xpath "http://ns.adobe.com/XPath/1.0/">
]>
<svg version="1.1" id="Capa_1" xmlns:x="&ns_extend;" xmlns:i="&ns_ai;" xmlns:graph="&ns_graphs;"
	 xmlns="http://www.w3.org/2000/svg" xmlns:xlink="http://www.w3.org/1999/xlink" xmlns:a="http://ns.adobe.com/AdobeSVGViewerExtensions/3.0/"
	 x="0px" y="0px" width="100%" height="100%" viewBox="75.5 167.5 460 456" enable-background="new 75.5 167.5 460 456"
	 xml:space="preserve">
<metadata>
	<sfw  xmlns="&ns_sfw;">
		<slices></slices>
		<sliceSourceBounds  height="445.801" width="445.801" bottomLeftOrigin="true" y="173.599" x="82.6"></sliceSourceBounds>
	</sfw>
</metadata>
<g>
	<path d="M515.642,176.413l-11.117-1.174c-115.026-12.143-227.907,27.802-309.695,109.589
		C113.041,366.618,73.097,479.497,85.24,594.523l1.174,11.118c0.553,5.246,4.698,9.391,9.945,9.945l11.119,1.174
		c115.026,12.144,227.906-27.802,309.694-109.59c81.788-81.787,121.731-194.667,109.59-309.694l-1.175-11.118
		C525.033,181.111,520.889,176.967,515.642,176.413z M109.824,594.523L107.7,594.3l-0.224-2.124
		c-2.526-23.93-2.649-47.763-0.489-71.203l74.039,74.038C157.587,597.172,133.755,597.051,109.824,594.523z M208.961,591.322
		l-98.283-98.283c12.424-72.107,46.796-139.233,99.962-192.4c53.165-53.165,120.287-87.534,192.393-99.96l98.289,98.29
		c-12.427,72.106-46.796,139.227-99.961,192.392C348.193,544.526,281.068,578.898,208.961,591.322z M504.523,199.824
		c2.527,23.934,2.648,47.768,0.488,71.21l-74.046-74.046c23.442-2.16,47.277-2.039,71.211,0.489l2.123,0.225L504.523,199.824z"/>
	<path d="M400.948,285.24l-28.242,28.242l-16.042-16.042c-4.366-4.366-11.445-4.366-15.812,0s-4.366,11.445,0,15.812l16.041,16.041
		l-29.072,29.073l-16.042-16.042c-4.366-4.366-11.444-4.367-15.811,0c-4.367,4.367-4.366,11.445,0,15.812l16.041,16.042
		l-29.073,29.073l-16.042-16.042c-4.366-4.366-11.445-4.366-15.812,0c-4.366,4.367-4.366,11.445,0,15.811l16.042,16.042
		l-29.072,29.071l-16.042-16.041c-4.366-4.366-11.445-4.366-15.812,0c-4.366,4.366-4.366,11.445,0,15.812l16.042,16.041
		l-30.051,30.051c-4.366,4.366-4.366,11.445,0,15.812c4.367,4.366,11.445,4.367,15.812,0.001l30.051-30.051l16.042,16.042
		c4.366,4.366,11.445,4.365,15.811-0.001c4.367-4.367,4.367-11.445,0-15.812l-16.042-16.042l29.071-29.071l16.042,16.042
		c4.366,4.366,11.445,4.366,15.811-0.001c4.366-4.366,4.367-11.444,0.001-15.811l-16.042-16.042l29.073-29.073l16.041,16.042
		c4.366,4.366,11.444,4.366,15.812-0.001c4.366-4.366,4.366-11.444,0-15.81l-16.042-16.042l29.071-29.071l16.042,16.042
		c4.366,4.367,11.445,4.366,15.812,0c4.367-4.367,4.367-11.445,0.001-15.811l-16.042-16.042l28.242-28.242
		c4.366-4.366,4.366-11.445,0-15.812S405.312,280.875,400.948,285.24z"/>
</g>
</svg>
