<?xml version="1.0" encoding="iso-8859-1"?>
<!-- Generator: Adobe Illustrator 18.0.0, SVG Export Plug-In . SVG Version: 6.00 Build 0)  -->
<!DOCTYPE svg PUBLIC "-//W3C//DTD SVG 1.1//EN" "http://www.w3.org/Graphics/SVG/1.1/DTD/svg11.dtd">
<svg version="1.1" id="Capa_1" xmlns="http://www.w3.org/2000/svg" xmlns:xlink="http://www.w3.org/1999/xlink" x="0px" y="0px"
	 viewBox="0 0 255.228 255.228" style="enable-background:new 0 0 255.228 255.228;" xml:space="preserve">
<g>
	<circle cx="81.753" cy="204.122" r="11.145"/>
	<circle cx="173.461" cy="81.208" r="11.145"/>
	<circle cx="173.461" cy="50.479" r="11.145"/>
	<circle cx="204.03" cy="142.665" r="11.145"/>
	<circle cx="204.03" cy="111.936" r="11.145"/>
	<circle cx="204.03" cy="81.208" r="11.145"/>
	<path d="M232.593,55.115C213.228,27.071,184.101,8.247,150.578,2.11c-7.637-1.398-15.414-2.107-23.115-2.107
		C65.921,0.003,13.198,44.009,2.099,104.64C-10.57,173.843,35.425,240.45,104.628,253.118c7.633,1.397,15.409,2.106,23.112,2.106
		c0.004,0,0.006,0,0.01,0c61.538,0,114.258-44.005,125.357-104.636C259.244,117.066,251.959,83.159,232.593,55.115z
		 M127.741,242.225c-2.289,0-4.585-0.077-6.882-0.215c1.626-1.937,2.608-4.432,2.608-7.159c0-6.155-4.99-11.145-11.145-11.145
		s-11.145,4.99-11.145,11.145c0,1.594,0.34,3.106,0.943,4.477c-3.193-0.727-6.33-1.576-9.4-2.555
		c0.109-0.625,0.174-1.266,0.174-1.923c0-6.152-4.982-11.145-11.145-11.145c-3.678,0-6.937,1.786-8.966,4.537
		c-6.907-3.77-13.35-8.21-19.251-13.228c5.027-1.079,8.796-5.543,8.796-10.892c0-6.155-4.99-11.145-11.145-11.145
		c-5.341,0-9.799,3.759-10.887,8.774c-11.899-14.038-20.392-30.858-24.5-49.048c1.46,0.702,3.089,1.106,4.817,1.106
		c6.155,0,11.145-4.99,11.145-11.145s-4.99-11.145-11.145-11.145c-2.847,0-5.437,1.077-7.407,2.833
		c-0.529-8.973-0.01-18.146,1.679-27.373C24.855,52.526,72.2,13.003,127.463,13.003c2.139,0,4.284,0.068,6.431,0.189
		c-1.345,1.842-2.148,4.104-2.148,6.558c0,6.155,4.99,11.145,11.145,11.145c6.155,0,11.145-4.99,11.145-11.145
		c0-1.333-0.246-2.606-0.676-3.792c3.061,0.703,6.078,1.524,9.044,2.463c-0.052,0.437-0.088,0.877-0.088,1.328
		c0,6.152,4.993,11.145,11.145,11.145c3.494,0,6.603-1.617,8.646-4.136c6.783,3.656,13.173,7.99,19.084,12.954
		c-4.778,1.257-8.307,5.594-8.307,10.766c0,6.155,4.99,11.145,11.145,11.145c5.192,0,9.542-3.555,10.78-8.36
		c2.498,2.941,4.864,6.021,7.086,9.238c2.193,3.176,4.213,6.436,6.058,9.768c-2.726,2.033-4.496,5.274-4.496,8.934
		c0,6.163,4.982,11.145,11.145,11.145c0.689,0,1.361-0.072,2.016-0.191c1.043,3.192,1.94,6.425,2.694,9.691
		c-1.433-0.671-3.027-1.058-4.715-1.058c-6.155,0-11.145,4.99-11.145,11.146s4.99,11.145,11.145,11.145
		c2.844,0,5.432-1.075,7.401-2.829c0.292,4.674,0.296,9.382,0.009,14.103c-1.97-1.758-4.561-2.836-7.41-2.836
		c-6.155,0-11.145,4.99-11.145,11.145s4.99,11.145,11.145,11.145c1.724,0,3.351-0.403,4.808-1.102
		c-0.742,3.314-1.624,6.568-2.638,9.757c-0.701-0.138-1.424-0.214-2.165-0.214c-6.163,0-11.145,4.982-11.145,11.145
		c0,3.774,1.878,7.107,4.75,9.124C208.593,218.516,170.545,242.229,127.741,242.225z"/>
</g>
<g>
</g>
<g>
</g>
<g>
</g>
<g>
</g>
<g>
</g>
<g>
</g>
<g>
</g>
<g>
</g>
<g>
</g>
<g>
</g>
<g>
</g>
<g>
</g>
<g>
</g>
<g>
</g>
<g>
</g>
</svg>
