<?xml version="1.0" encoding="iso-8859-1"?>
<!-- Generator: Adobe Illustrator 18.0.0, SVG Export Plug-In . SVG Version: 6.00 Build 0)  -->
<!DOCTYPE svg PUBLIC "-//W3C//DTD SVG 1.1//EN" "http://www.w3.org/Graphics/SVG/1.1/DTD/svg11.dtd">
<svg version="1.1" id="Capa_1" xmlns="http://www.w3.org/2000/svg" xmlns:xlink="http://www.w3.org/1999/xlink" x="0px" y="0px"
	 viewBox="0 0 254.393 254.393" style="enable-background:new 0 0 254.393 254.393;" xml:space="preserve">
<path d="M214.54,52.643c-23.425-7.568-54.444-11.736-87.343-11.736s-63.919,4.168-87.344,11.736C13.781,61.066,0,72.74,0,86.401
	v81.621c0.023,13.645,13.812,25.308,39.875,33.73c23.419,7.567,54.431,11.734,87.322,11.734c32.884,0,63.895-4.167,87.32-11.732
	c26.064-8.418,39.853-20.083,39.876-33.744V86.401C254.393,72.74,240.612,61.066,214.54,52.643z M127.197,53.907
	c70.752,0,114.196,18.926,114.196,32.495c0,13.568-43.444,32.494-114.196,32.494C56.444,118.896,13,99.97,13,86.401
	C13,72.833,56.444,53.907,127.197,53.907z M78.313,128.627v68.465c-6.483-0.95-12.691-2.095-18.567-3.422v-68.281
	C65.663,126.645,71.872,127.725,78.313,128.627z M91.313,130.181c9.423,0.926,19.228,1.482,29.244,1.654v68.588
	c-10.055-0.178-19.859-0.761-29.244-1.72V130.181z M133.557,131.842c10.113-0.166,20.011-0.727,29.522-1.661v68.561
	c-9.162,0.927-19.019,1.521-29.522,1.692V131.842z M176.08,128.627c6.441-0.902,12.651-1.982,18.567-3.238v68.338
	c-5.721,1.292-11.921,2.442-18.567,3.413V128.627z M13,168.011v-60.537c1.913,1.391,4.034,2.738,6.358,4.041v66.053
	C14.888,173.997,13.004,170.656,13,168.011z M32.358,185.054v-67.538c2.375,0.913,4.869,1.796,7.495,2.644
	c2.224,0.719,4.537,1.396,6.894,2.053v68.054c-0.965-0.292-1.936-0.581-2.875-0.885C39.509,187.972,35.69,186.52,32.358,185.054z
	 M207.646,190.319v-68.107c2.356-0.657,4.669-1.334,6.894-2.053c2.626-0.848,5.12-1.731,7.495-2.644v67.565
	C217.864,186.918,213.055,188.682,207.646,190.319z M235.035,177.633v-66.118c2.324-1.302,4.445-2.65,6.358-4.041V168
	C241.388,171.033,239.204,174.335,235.035,177.633z"/>
<g>
</g>
<g>
</g>
<g>
</g>
<g>
</g>
<g>
</g>
<g>
</g>
<g>
</g>
<g>
</g>
<g>
</g>
<g>
</g>
<g>
</g>
<g>
</g>
<g>
</g>
<g>
</g>
<g>
</g>
</svg>
