<?xml version="1.0" encoding="utf-8"?>
<!-- Generator: Adobe Illustrator 16.0.0, SVG Export Plug-In . SVG Version: 6.00 Build 0)  -->
<!DOCTYPE svg PUBLIC "-//W3C//DTD SVG 1.1//EN" "http://www.w3.org/Graphics/SVG/1.1/DTD/svg11.dtd" [
	<!ENTITY ns_flows "http://ns.adobe.com/Flows/1.0/">
	<!ENTITY ns_extend "http://ns.adobe.com/Extensibility/1.0/">
	<!ENTITY ns_ai "http://ns.adobe.com/AdobeIllustrator/10.0/">
	<!ENTITY ns_graphs "http://ns.adobe.com/Graphs/1.0/">
	<!ENTITY ns_vars "http://ns.adobe.com/Variables/1.0/">
	<!ENTITY ns_imrep "http://ns.adobe.com/ImageReplacement/1.0/">
	<!ENTITY ns_sfw "http://ns.adobe.com/SaveForWeb/1.0/">
	<!ENTITY ns_custom "http://ns.adobe.com/GenericCustomNamespace/1.0/">
	<!ENTITY ns_adobe_xpath "http://ns.adobe.com/XPath/1.0/">
]>
<svg version="1.1" id="Capa_1" xmlns:x="&ns_extend;" xmlns:i="&ns_ai;" xmlns:graph="&ns_graphs;"
	 xmlns="http://www.w3.org/2000/svg" xmlns:xlink="http://www.w3.org/1999/xlink" xmlns:a="http://ns.adobe.com/AdobeSVGViewerExtensions/3.0/"
	 x="0px" y="0px" width="100%" height="100%" viewBox="0 60.5 612 655" enable-background="new 0 60.5 612 655"
	 xml:space="preserve">
<metadata>
	<sfw  xmlns="&ns_sfw;">
		<slices></slices>
		<sliceSourceBounds  height="636.587" width="592.718" bottomLeftOrigin="true" y="85.672" x="9.137"></sliceSourceBounds>
	</sfw>
</metadata>
<path d="M589.069,297.407c-0.215-0.927-0.478-1.844-0.786-2.738l-0.054-0.176c-0.298-1.01-0.602-2.021-0.953-3.175l-0.062-0.202
	c-5.622-18.397-12.829-36.357-21.423-53.383c-1.767-3.851-3.553-7.699-5.336-11.542l-1.829-3.939
	c-1.311-2.857-2.689-5.786-4.129-8.768l15.044-12.087c8.073-6.541,13.323-16.165,14.408-26.411
	c1.153-10.353-1.939-20.923-8.462-28.973l-49.11-61.036c-7.528-9.365-18.736-14.736-30.749-14.736
	c-8.985,0-17.759,3.101-24.643,8.684l-105.74,84.851c-8.306,6.592-13.51,16.028-14.653,26.566
	c-1.126,10.36,1.804,20.576,8.266,28.784c1.082,1.37,2.3,2.64,3.618,3.775c22.359,19.259,42.756,49.08,57.432,83.968
	c14.308,34.021,22.188,70.106,22.188,101.608c0,38.693-13.261,70.538-38.349,92.092c-23.881,20.517-58.596,31.815-97.75,31.815
	s-73.869-11.299-97.751-31.815c-25.087-21.553-38.348-53.397-38.348-92.092c0-31.514,7.875-67.604,22.174-101.621
	c14.667-34.893,35.057-64.714,57.413-83.97c1.272-1.096,2.449-2.315,3.494-3.622c6.587-8.226,9.571-18.525,8.404-28.998
	c-1.165-10.459-6.327-19.838-14.517-26.394L141.144,78.975c-6.983-5.626-15.763-8.725-24.721-8.725
	c-12.009,0-23.209,5.368-30.724,14.72l-49.083,61.021c-6.615,8.204-9.635,18.491-8.503,28.967
	c1.133,10.478,6.281,19.883,14.485,26.477l14.91,12.002c-1.415,2.927-2.794,5.843-4.13,8.734l-2.19,4.741
	c-1.675,3.619-3.349,7.241-5.008,10.861c-8.479,16.802-15.604,34.508-21.157,52.553c-0.19,0.606-0.947,3.094-1.113,3.654
	l-0.17,0.568c-0.146,0.478-0.29,0.957-0.437,1.466c-0.097,0.338-0.187,0.677-0.271,1.016c-8.887,31.083-13.394,63.459-13.394,96.237
	c0,85.448,30.66,164.715,86.331,223.2c55.469,58.271,130.058,90.363,210.028,90.363c79.968,0,154.557-32.091,210.027-90.36
	c55.672-58.485,86.332-137.752,86.332-223.2C602.355,360.625,597.886,328.376,589.069,297.407z M476.476,578.819
	c-45.061,47.337-105.604,73.407-170.479,73.407c-64.875,0-125.42-26.07-170.48-73.407c-45.965-48.287-71.279-114.185-71.279-185.554
	c0-28.023,3.887-55.657,11.545-82.113c0.083-0.284,0.16-0.568,0.233-0.854l0.224-0.741c0.148-0.498,0.737-2.434,0.922-3.028
	c4.735-15.384,10.78-30.378,17.95-44.529c0.171-0.335,0.336-0.678,0.488-1.01c1.663-3.631,3.342-7.263,5.021-10.893l2.32-5.021
	c4.004-8.658,8.39-17.488,13.035-26.246c6.12-11.543,3.176-25.867-7-34.057l-20.323-16.36l30.087-37.404l80.356,64.529
	c-22.746,23.737-42.392,54.562-57.356,90.161c-17.051,40.559-26.441,84.163-26.441,122.779c0,55.097,19.837,101.263,57.368,133.506
	c33.778,29.02,81.13,45.001,133.332,45.001c52.202,0,99.553-15.981,133.33-45.001c37.53-32.243,57.368-78.408,57.368-133.506
	c0-38.611-9.396-82.215-26.459-122.777c-14.967-35.584-34.616-66.402-57.362-90.139l80.455-64.562l30.097,37.405l-20.391,16.382
	c-10.193,8.191-13.146,22.521-7.02,34.072c4.832,9.112,9.207,17.927,13.031,26.261l1.841,3.965
	c1.836,3.956,3.675,7.917,5.519,11.937c0.128,0.275,0.26,0.549,0.438,0.906c7.285,14.371,13.397,29.574,18.167,45.187l0.095,0.302
	c0.257,0.846,0.512,1.692,0.768,2.562l0.151,0.504c0.062,0.232,0.125,0.464,0.193,0.696c7.654,26.461,11.536,54.079,11.536,82.085
	C547.754,464.634,522.44,530.532,476.476,578.819z"/>
</svg>
