<?xml version="1.0" encoding="utf-8"?>
<!-- Generator: Adobe Illustrator 16.0.0, SVG Export Plug-In . SVG Version: 6.00 Build 0)  -->
<!DOCTYPE svg PUBLIC "-//W3C//DTD SVG 1.1//EN" "http://www.w3.org/Graphics/SVG/1.1/DTD/svg11.dtd">
<svg version="1.1" id="Capa_1" xmlns="http://www.w3.org/2000/svg" xmlns:xlink="http://www.w3.org/1999/xlink" x="0px" y="0px"
	 width="100%" height="100%" viewBox="0 0 612 792" enable-background="new 0 0 612 792" xml:space="preserve">
<g>
	<path d="M576.344,96.021c-1.52-0.05-3.236,0.281-4.985,1.238c-8.088,4.424-9.54,6.867-12.941,7.114
		c-3.466,0.249-9.31-0.726-11.026,1.47c-1.753,2.212-1.488,2.692-3.47,5.646c-1.914,2.922-20.795,10.993-20.795,10.993l-2.446-1.468
		c0,0-50.644,17.629-73.885,35.474c-23.277,17.876-32.287,28.145-32.287,28.145s-14.926,4.16-22.552,8.583
		c-7.561,4.392-15.881,14.94-15.881,14.94s-11.026,2.673-15.187,5.612c-4.159,2.938-4.886,5.399-4.886,5.399
		s-7.097,2.425-9.539,4.142c-2.446,1.701-17.136,16.888-18.355,17.63c-1.224,0.744-31.036,17.284-31.036,17.284
		c-24.168,10.103-34.93,11.719-37.241,11.473c-0.827-0.066-2.114-0.1-3.699-0.132c1.027,0.726,3.566,6.009,6.671,14.098
		c3.466,9.011,0,19.726,0,19.726s5.876-5.201,10.401-9.36c4.489-4.142,25.617-34.235,25.617-34.235l11.392,13.14
		c0,0-4.493,9.705-16.936,25.949c-12.447,16.26-36.35,40.508-36.35,40.508s0,6.901-1.388,11.061c-1.42,4.16-3.795,5.199-3.795,5.199
		l-1.752,5.895c0,0,0,11.06,4.854,21.442c4.854,10.367,22.848,32.883,27.337,41.55c4.525,8.616,5.215,34.218,5.215,34.218
		l-20.072,7.959c0.1-0.101,0.497-0.891,0.3-7.232c-0.497-20.599-8.652-36.529-18.656-47.26
		c-10.068-10.712-13.502-35.095-13.502-35.095s-14.525,11.787-17.53,12.397l0.297,0.429l31.064,56.391c0,0-7.59,46.352-9.671,61.57
		s-3.434,27.008,1.388,49.158c4.854,22.122,8.284,81.679,8.284,81.679l3.469,0.661c0,0-4.127,15.219-9.013,20.799
		c-4.854,5.548-17.995,17.994-22.119,20.072c-4.163,2.047-16.639,5.548-19.414,6.932c-2.772,1.356-2.046,7.562,2.775,8.256
		c4.818,0.726,12.476-1.353,19.411,0c6.932,1.42,15.219-3.434,20.073-5.512c4.854-2.05,11.059-2.775,15.913-2.05
		c4.821,0.662,8.287,1.355,15.219,1.355c6.936,0,9.708-12.447,5.515-20.072c-4.16-7.63-5.515-13.142-4.127-16.606
		c1.384-3.467,1.384-13.174,1.384-13.174s39.455-6.899,42.227-10.365c2.775-3.47,3.434-3.47,3.434-3.47s-3.434-75.437-8.978-96.203
		c-5.516-20.767-6.936-41.533-6.936-53.979c0-12.479,10.401-88.61,15.913-101.75c5.548-13.141,33.939-49.16,51.204-68.539
		c17.369-19.363,69.235-69.891,79.633-76.115c10.401-6.239,89.271-42.243,89.271-42.243s-4.854-16.607-4.854-23.506
		c0-6.917-2.74-11.785-2.74-11.785s9.84-9.509,12.845-11.077c2.904-1.568,8.78-3.286,8.78-3.286l1.188,0.165
		c0,0,0.2,2.278,1.091,2.79c0.858,0.512,1.521,0.678,1.521,0.678s-0.365,3.119,0,4.16c0.329,1.039,3.827,3.614,3.827,3.614
		s-1.946,6.24-0.558,7.445c1.416,1.222,4.85,1.222,7.128,0.678c2.246-0.496,3.072-5.861,5.15-9.146s4.722-4.507,4.722-7.792
		s-4.356-13.155-3.995-15.913c0.329-2.79,7.429-12.447,8.287-15.6c0.858-3.103-0.497-6.189-0.759-6.717
		C585.786,101.452,581.924,96.219,576.344,96.021L576.344,96.021z M335.698,146.369L335.698,146.369
		c-2.805,0.148-6.271,2.276-8.284,2.475c-2.442,0.23-3.862,0.23-5.086,1.47c-1.22,1.204-8.319,8.089-8.319,12.231
		c0,4.16,1.223,13.47,1.223,13.47c-19.808,18.324-42.491,29.301-65.933,38.479c0,0-24-0.973-34.995-0.973
		c-11.023,0-10,3.185-15.648,2.212c-5.644-0.975-43.81-6.372-49.652-5.876c-5.911,0.478-27.403,15.632-27.403,15.632v-10.004
		c0,0,4.125-2.443,4.886-3.929c0.694-1.469-4.687-9.541-7.363-13.222c-2.708-3.682-3.664-5.365-2.708-8.552
		c0.958-3.169-4.621-12.726-4.621-12.726s6.338-7.842-2.708-13.949c-9.045-6.124-29.15-14.922-56.058-3.895
		c-26.94,10.993-28.095,33.262-24.232,49.405c3.927,16.162,10.564,26.198,15.187,27.436c4.621,1.205,7.329,3.648,9.31,4.639
		c1.98,0.991,5.379,1.452,5.379,1.452s9.31,6.621,8.552,12.249c-0.726,5.614-2.212,4.144-2.212,4.144s-2.178-3.169-6.14-2.673
		c-3.863,0.495-7.066,5.628-7.793,12.249c-0.726,6.603,2.972,20.303,2.972,20.303s-0.527,12.198-4.457,23.456
		c-3.895,11.292-6.075,22.55-2.904,30.357c3.135,7.858,25.915,22.764,25.915,22.764s10.564,20.568,34.764,21.79
		c24.232,1.222,30.606,2.196,33.743-2.477c5.215-12.71,0.361-28.393-0.132-41.812c-1.717-11.061-1.355-51.916-1.355-51.916
		s-2.078-1.37-4.852-3.119c-2.806-1.717-20.801-6.57-20.801-6.57s1.42-5.546,2.774-10.73c1.386-5.199,0-8.303-0.331-11.753
		c-0.361-3.466-2.772-10.052-2.772-10.052c0.694-0.363,12.018,2.294,12.678,4.358c0.692,2.096,3.103,8.319,3.103,11.093
		c0,2.756-1.32,10.233-1.32,10.233l27.995,8.981c0,0-2.078,8.781-2.772,13.981c-0.726,5.199-0.826,22.5-0.461,36.002
		c0.165,6.917,1.452,18.291,2.706,27.666l52.887,15.931c0-0.116,0-0.215,0-0.215s8.291-3.78,14.529-10.714
		c6.274-6.932,9.708-14.18,9.708-14.18s-1.717-10.036,1.055-14.525c2.74-4.507,8.652-4.87,8.652-4.87s1.023-2.064,4.85-7.247
		c3.798-5.201,2.74-22.154,1.717-31.497c-1.023-8.963-7.525-22.796-8.055-23.936l0,0c-7.361-0.165-13.438-0.578-11.091-1.998
		c3.598-2.196,11.85-2.295,20.598-5.365c23.574-8.287,56.094-25.488,59.528-28.805c13.995-6.486,24.958-15.301,35.62-23.226
		c0,0,0.959-6.125-1.981-10.778c-2.904-4.639-3.397-5.844-3.397-5.844s15.384-11.77,15.384-19.116c0-7.345-3.663-7.345-3.663-7.345
		s0.493-2.18-0.497-4.16c-0.959-1.949-3.663-3.171-3.663-3.171s0.955-4.407-0.729-5.876c-1.717-1.484-6.138-1.964-6.138-1.964
		s-0.465-3.895-3.401-5.134C336.953,146.401,336.327,146.334,335.698,146.369L335.698,146.369z M335.698,146.369"/>
</g>
</svg>
