<?xml version="1.0" encoding="utf-8"?>
<!-- Generator: Adobe Illustrator 16.0.0, SVG Export Plug-In . SVG Version: 6.00 Build 0)  -->
<!DOCTYPE svg PUBLIC "-//W3C//DTD SVG 1.1//EN" "http://www.w3.org/Graphics/SVG/1.1/DTD/svg11.dtd" [
	<!ENTITY ns_flows "http://ns.adobe.com/Flows/1.0/">
	<!ENTITY ns_extend "http://ns.adobe.com/Extensibility/1.0/">
	<!ENTITY ns_ai "http://ns.adobe.com/AdobeIllustrator/10.0/">
	<!ENTITY ns_graphs "http://ns.adobe.com/Graphs/1.0/">
	<!ENTITY ns_vars "http://ns.adobe.com/Variables/1.0/">
	<!ENTITY ns_imrep "http://ns.adobe.com/ImageReplacement/1.0/">
	<!ENTITY ns_sfw "http://ns.adobe.com/SaveForWeb/1.0/">
	<!ENTITY ns_custom "http://ns.adobe.com/GenericCustomNamespace/1.0/">
	<!ENTITY ns_adobe_xpath "http://ns.adobe.com/XPath/1.0/">
]>
<svg version="1.1" id="Capa_1" xmlns:x="&ns_extend;" xmlns:i="&ns_ai;" xmlns:graph="&ns_graphs;"
	 xmlns="http://www.w3.org/2000/svg" xmlns:xlink="http://www.w3.org/1999/xlink" xmlns:a="http://ns.adobe.com/AdobeSVGViewerExtensions/3.0/"
	 x="0px" y="0px" width="100%" height="100%" viewBox="0 125.5 612 509" enable-background="new 0 125.5 612 509"
	 xml:space="preserve">
<metadata>
	<sfw  xmlns="&ns_sfw;">
		<slices></slices>
		<sliceSourceBounds  height="486.438" width="486.429" bottomLeftOrigin="true" y="170.311" x="62.285"></sliceSourceBounds>
	</sfw>
</metadata>
<g>
	<g>
		<path fill="#282826" d="M75.112,611.839c-42.56-42.588,29.503-195.162,148.323-313.941
			C342.243,179.076,494.805,107,537.377,149.585c41.793,41.805-31.66,197.321-148.311,313.943
			C266.764,585.832,111.647,648.333,75.112,611.839z M518.6,168.363c-21.914-21.929-153.727,25.611-276.398,148.284
			C119.513,439.347,71.974,571.133,93.902,593.062c15.971,15.941,149.821-21.692,276.415-148.285
			C498.036,317.031,537.087,186.822,518.6,168.363z"/>
	</g>
	<g>
		<path fill="#282826" d="M237.777,449.146c-20.141-20.102-4.051-66.581,37.409-108.042c41.448-41.462,87.9-57.536,108.054-37.384
			c20.142,20.129,4.078,66.61-37.396,108.056C304.385,453.253,257.905,469.327,237.777,449.146z M372.542,314.422
			c-11.642-11.625-50.095,0.873-86.631,37.438c-36.548,36.546-49.048,74.962-37.395,86.561c11.64,11.682,50.055-0.821,86.589-37.369
			C371.667,364.517,384.182,326.075,372.542,314.422z"/>
	</g>
	<g>
		<path fill="#282826" d="M457.528,229.449c-2.966-2.967-2.952-7.773,0.015-10.727l32.879-32.88c2.953-2.967,7.746-2.967,10.699,0
			c2.979,2.953,2.966,7.76,0.014,10.726l-32.865,32.881C465.303,232.401,460.508,232.428,457.528,229.449z"/>
	</g>
	<g>
		<path fill="#282826" d="M112.574,574.391c-2.966-2.939-2.953-7.761,0.013-10.727l32.88-32.92c2.966-2.94,7.773-2.94,10.739,0
			c2.966,2.994,2.954,7.786-0.014,10.78l-32.879,32.865C120.347,577.356,115.54,577.356,112.574,574.391z"/>
	</g>
</g>
<g>
	<g>
		<g>
			<path fill="#282826" d="M500.468,137.248v1.5c15.896,0,27.956,4.003,35.85,11.898c9.812,9.815,13.321,26.314,10.435,49.041
				c-2.76,21.71-11.566,48.742-25.47,78.173c-29.219,61.854-77.796,129.141-133.275,184.608
				c-58.571,58.573-116.102,95.492-154.048,116.15c-49.113,26.735-94.985,42.069-125.853,42.069
				c-14.604,0-25.348-3.334-31.931-9.909c-19.813-19.825-14.732-66.005,13.939-126.697c28.89-61.155,77.871-128.63,134.383-185.123
				c45.327-45.332,98.515-86.475,149.766-115.85c49.904-28.603,94.723-44.357,126.195-44.36L500.468,137.248 M500.457,137.248
				c-64.52,0.007-181.65,65.268-277.021,160.649C104.616,416.677,32.552,569.251,75.112,611.839
				c7,6.992,18.352,10.351,32.992,10.351c61.775,0,182.091-59.788,280.962-158.66C505.716,346.907,579.17,191.391,537.377,149.586
				C528.979,141.185,516.312,137.246,500.457,137.248L500.457,137.248z"/>
		</g>
	</g>
</g>
<path fill="#282826" d="M544.436,548.595c-0.62-1.749-1.614-3.337-2.952-4.661l-66.567-66.581
	c-8.501-8.502-19.797-13.639-31.767-14.484l-22.539-1.592c-2.947-0.193-5.842,0.673-8.199,2.382L217.525,268.771
	c1.71-2.362,2.582-5.25,2.376-8.217l-1.59-22.512c-0.86-11.997-6.012-23.305-14.486-31.78l-66.582-66.581
	c-1.324-1.324-2.914-2.305-4.66-2.939c-24.644-8.687-59.96,42.586-60.265,43.116c-7.138,11.335-7.654,20.181-1.537,26.298
	l66.873,66.873c8.25,8.236,19.161,13.348,30.761,14.408l22.286,2.014c3.375,0.311,6.686-0.77,9.232-2.942l194.741,194.73
	c-2.175,2.549-3.261,5.87-2.972,9.225l2.039,22.299c1.061,11.601,6.171,22.512,14.408,30.748l66.872,66.872
	c6.131,6.145,14.989,5.643,26.299-1.509c0.266-0.186,12.766-8.767,24.379-20.394C537.748,576.455,548.859,561.12,544.436,548.595z
	 M155.319,255.363l-62.104-62.105c5.76-9.428,22.021-26.511,30.907-31.383l62.039,62.051c4.237,4.238,6.819,9.88,7.243,15.864
	l0.936,13.37l-60.261-60.273c-2.792-2.78-7.31-2.78-10.102,0c-2.782,2.781-2.782,7.31,0.012,10.091l60.854,60.865l-14.135-1.275
	C164.894,262.037,159.438,259.493,155.319,255.363z M487.893,587.949l-62.077-62.077c-4.119-4.132-6.675-9.588-7.204-15.389
	l-1.277-14.158l64.999,65.009c2.793,2.78,7.295,2.78,10.09,0c2.781-2.809,2.793-7.31,0-10.091l-64.389-64.4l13.354,0.944
	c5.998,0.423,11.641,2.992,15.865,7.229l62.05,62.054C514.402,565.914,497.321,582.176,487.893,587.949z"/>
</svg>
