<?xml version="1.0" encoding="utf-8"?>
<!-- Generator: Adobe Illustrator 16.0.0, SVG Export Plug-In . SVG Version: 6.00 Build 0)  -->
<!DOCTYPE svg PUBLIC "-//W3C//DTD SVG 1.1//EN" "http://www.w3.org/Graphics/SVG/1.1/DTD/svg11.dtd" [
	<!ENTITY ns_flows "http://ns.adobe.com/Flows/1.0/">
	<!ENTITY ns_extend "http://ns.adobe.com/Extensibility/1.0/">
	<!ENTITY ns_ai "http://ns.adobe.com/AdobeIllustrator/10.0/">
	<!ENTITY ns_graphs "http://ns.adobe.com/Graphs/1.0/">
	<!ENTITY ns_vars "http://ns.adobe.com/Variables/1.0/">
	<!ENTITY ns_imrep "http://ns.adobe.com/ImageReplacement/1.0/">
	<!ENTITY ns_sfw "http://ns.adobe.com/SaveForWeb/1.0/">
	<!ENTITY ns_custom "http://ns.adobe.com/GenericCustomNamespace/1.0/">
	<!ENTITY ns_adobe_xpath "http://ns.adobe.com/XPath/1.0/">
]>
<svg version="1.1" id="Capa_1" xmlns:x="&ns_extend;" xmlns:i="&ns_ai;" xmlns:graph="&ns_graphs;"
	 xmlns="http://www.w3.org/2000/svg" xmlns:xlink="http://www.w3.org/1999/xlink" xmlns:a="http://ns.adobe.com/AdobeSVGViewerExtensions/3.0/"
	 x="0px" y="0px" width="100%" height="100%" viewBox="75.5 165.5 462 459" enable-background="new 75.5 165.5 462 459"
	 xml:space="preserve">
<metadata>
	<sfw  xmlns="&ns_sfw;">
		<slices></slices>
		<sliceSourceBounds  height="445.802" width="445.802" bottomLeftOrigin="true" y="173.599" x="82.6"></sliceSourceBounds>
	</sfw>
</metadata>
<path d="M515.642,176.413l-11.117-1.174c-115.026-12.142-227.907,27.803-309.695,109.59
	C113.041,366.618,73.097,479.496,85.24,594.523l1.173,11.117c0.554,5.247,4.698,9.391,9.946,9.946l11.118,1.174
	c115.026,12.144,227.907-27.802,309.695-109.59c81.788-81.787,121.731-194.667,109.591-309.695l-1.175-11.117
	C525.033,181.111,520.888,176.966,515.642,176.413z M117.769,584.139c2.621-10.125,6.61-23.791,12.434-39.951l27.518,27.518
	C141.561,577.529,127.894,581.518,117.769,584.139z M139.04,521.4c0.227-0.545,0.444-1.082,0.674-1.631
	c18.821-44.908,54.3-111.484,116.436-173.621c62.125-62.125,128.496-97.41,173.234-116.071c0.728-0.303,1.439-0.591,2.16-0.887
	l41.172,41.172c-0.297,0.721-0.584,1.433-0.888,2.159c-18.66,44.738-53.944,111.11-116.069,173.235
	c-62.137,62.137-128.713,97.615-173.622,116.436c-0.549,0.229-1.084,0.447-1.631,0.674L139.04,521.4L139.04,521.4z M454.393,220.415
	c15.817-5.635,29.2-9.497,39.135-12.035c-2.536,9.935-6.4,23.317-12.035,39.135L454.393,220.415z M445.504,195.97
	c-3.668,1.311-7.448,2.704-11.355,4.201l-3.182-3.182C435.796,196.544,440.645,196.22,445.504,195.97z M210.641,300.64
	c53.165-53.165,120.286-87.535,192.392-99.961l8.677,8.676c-46.8,20.385-112.363,56.828-173.944,118.409
	C176.379,389.15,139.8,454.665,119.224,501.585l-8.546-8.546C123.101,420.932,157.474,353.806,210.641,300.64z M109.993,523.978
	c-1.406,3.635-2.728,7.168-3.973,10.6c0.246-4.547,0.55-9.086,0.967-13.604L109.993,523.978z M167.017,596.003
	c3.53-1.28,7.167-2.638,10.914-4.088l3.096,3.096C176.372,595.44,171.699,595.753,167.017,596.003z M401.361,491.36
	c-53.169,53.166-120.293,87.538-192.4,99.961l-8.638-8.638c46.919-20.576,112.435-57.155,173.821-118.541
	c61.581-61.581,98.024-127.144,118.408-173.944l8.77,8.769C488.896,371.074,454.526,438.195,401.361,491.36z M501.736,267.759
	c1.542-4.022,2.974-7.912,4.317-11.682c-0.252,5.001-0.585,9.99-1.041,14.958L501.736,267.759z"/>
</svg>
