<?xml version="1.0" encoding="iso-8859-1"?>
<!-- Generator: Adobe Illustrator 18.0.0, SVG Export Plug-In . SVG Version: 6.00 Build 0)  -->
<!DOCTYPE svg PUBLIC "-//W3C//DTD SVG 1.1//EN" "http://www.w3.org/Graphics/SVG/1.1/DTD/svg11.dtd">
<svg version="1.1" id="Capa_1" xmlns="http://www.w3.org/2000/svg" xmlns:xlink="http://www.w3.org/1999/xlink" x="0px" y="0px"
	 viewBox="0 0 255.222 255.222" style="enable-background:new 0 0 255.222 255.222;" xml:space="preserve">
<g>
	<path d="M150.586,2.107C142.95,0.709,135.173,0,127.473,0C65.93,0,13.206,44.006,2.107,104.636
		c-12.668,69.204,33.326,135.811,102.529,148.479c7.633,1.397,15.41,2.106,23.113,2.107c0.004,0,0.007,0,0.01,0
		c61.537,0,114.256-44.004,125.355-104.636C265.784,81.383,219.789,14.775,150.586,2.107z M240.328,148.245
		c-9.97,54.458-57.315,93.981-112.578,93.977c-6.921,0-13.91-0.638-20.773-1.894c-30.108-5.512-56.267-22.418-73.659-47.604
		s-23.935-55.639-18.424-85.747C24.863,52.523,72.209,13,127.473,13c6.917,0,13.906,0.637,20.772,1.894
		C210.397,26.272,251.705,86.093,240.328,148.245z"/>
	<path d="M91.953,57.595c-34.613,0-62.773,31.409-62.773,70.016s28.16,70.016,62.773,70.016s62.773-31.409,62.773-70.016
		S126.566,57.595,91.953,57.595z M91.953,184.627c-27.445,0-49.773-25.577-49.773-57.016s22.328-57.016,49.773-57.016
		s49.773,25.577,49.773,57.016S119.398,184.627,91.953,184.627z"/>
	<path d="M108.715,119.147c3.323-3.868,5.339-8.892,5.339-14.38c0-12.186-9.914-22.1-22.101-22.1c-12.186,0-22.1,9.914-22.1,22.1
		c0,5.488,2.015,10.511,5.339,14.38c-7.598,5.308-12.582,14.113-12.582,24.065c0,16.18,13.163,29.343,29.343,29.343
		s29.344-13.164,29.344-29.343C121.297,133.26,116.313,124.456,108.715,119.147z M82.853,104.767c0-5.018,4.083-9.1,9.1-9.1
		c5.018,0,9.101,4.083,9.101,9.1c0,5.018-4.083,9.101-9.101,9.101C86.935,113.868,82.853,109.785,82.853,104.767z M91.953,159.555
		c-9.012,0-16.343-7.332-16.343-16.343c0-9.012,7.332-16.344,16.343-16.344c9.012,0,16.344,7.332,16.344,16.344
		C108.297,152.223,100.965,159.555,91.953,159.555z"/>
</g>
<g>
</g>
<g>
</g>
<g>
</g>
<g>
</g>
<g>
</g>
<g>
</g>
<g>
</g>
<g>
</g>
<g>
</g>
<g>
</g>
<g>
</g>
<g>
</g>
<g>
</g>
<g>
</g>
<g>
</g>
</svg>
