<?xml version="1.0" encoding="iso-8859-1"?>
<!-- Generator: Adobe Illustrator 18.0.0, SVG Export Plug-In . SVG Version: 6.00 Build 0)  -->
<!DOCTYPE svg PUBLIC "-//W3C//DTD SVG 1.1//EN" "http://www.w3.org/Graphics/SVG/1.1/DTD/svg11.dtd">
<svg version="1.1" id="Capa_1" xmlns="http://www.w3.org/2000/svg" xmlns:xlink="http://www.w3.org/1999/xlink" x="0px" y="0px"
	 viewBox="0 0 255.222 255.222" style="enable-background:new 0 0 255.222 255.222;" xml:space="preserve">
<path d="M127.611,0C57.246,0,0,57.246,0,127.611s57.246,127.611,127.611,127.611c70.365,0,127.611-57.246,127.611-127.611
	S197.976,0,127.611,0z M13,127.611c0-3.272,0.146-6.51,0.416-9.714c33.158,24.952,69.323,45.591,107.696,61.458v34.741
	c-39.554-12.393-75.921-34.038-105.674-62.935C13.843,143.558,13,135.681,13,127.611z M55.969,78.743
	c30.493-28.055,67.402-48.731,107.286-60.061c10.708,3.513,20.724,8.562,29.788,14.887c-38.159,16.248-74.087,37.249-106.989,62.543
	L55.969,78.743z M121.111,131.364v33.91c-37.682-16.079-73.109-36.931-105.49-62.055c2.08-9.557,5.352-18.673,9.659-27.183
	L121.111,131.364z M134.111,131.364l29.339-16.939c5.031,40.612,4.815,81.674-0.613,122.251c-9.132,2.956-18.76,4.797-28.726,5.357
	V131.364z M175.631,107.393l30.072-17.362c9.1,40.299,8.662,82.473-1.306,122.592c-8.255,7.464-17.6,13.742-27.762,18.571
	C181.522,190.05,181.186,148.478,175.631,107.393z M217.468,83.238l12.474-7.202c7.85,15.511,12.28,33.035,12.28,51.575
	c0,24.302-7.609,46.858-20.562,65.422C227.529,156.614,226.134,119.165,217.468,83.238z M223.422,64.789l-95.81,55.316
	l-29.364-16.953c32.738-24.589,68.48-44.845,106.395-60.334C211.784,49.312,218.098,56.697,223.422,64.789z M127.611,13
	c3.388,0,6.74,0.157,10.054,0.446c-34.641,13.062-66.544,32.989-93.468,58.5l-12.397-7.157C52.307,33.621,87.594,13,127.611,13z
	 M23.716,175.966c28.629,23.479,61.838,41.154,97.395,51.724v14.344C77.961,239.609,41.118,213.206,23.716,175.966z"/>
<g>
</g>
<g>
</g>
<g>
</g>
<g>
</g>
<g>
</g>
<g>
</g>
<g>
</g>
<g>
</g>
<g>
</g>
<g>
</g>
<g>
</g>
<g>
</g>
<g>
</g>
<g>
</g>
<g>
</g>
</svg>
