<?xml version="1.0" encoding="utf-8"?>
<!-- Generator: Adobe Illustrator 16.0.0, SVG Export Plug-In . SVG Version: 6.00 Build 0)  -->
<!DOCTYPE svg PUBLIC "-//W3C//DTD SVG 1.1//EN" "http://www.w3.org/Graphics/SVG/1.1/DTD/svg11.dtd" [
	<!ENTITY ns_flows "http://ns.adobe.com/Flows/1.0/">
	<!ENTITY ns_extend "http://ns.adobe.com/Extensibility/1.0/">
	<!ENTITY ns_ai "http://ns.adobe.com/AdobeIllustrator/10.0/">
	<!ENTITY ns_graphs "http://ns.adobe.com/Graphs/1.0/">
	<!ENTITY ns_vars "http://ns.adobe.com/Variables/1.0/">
	<!ENTITY ns_imrep "http://ns.adobe.com/ImageReplacement/1.0/">
	<!ENTITY ns_sfw "http://ns.adobe.com/SaveForWeb/1.0/">
	<!ENTITY ns_custom "http://ns.adobe.com/GenericCustomNamespace/1.0/">
	<!ENTITY ns_adobe_xpath "http://ns.adobe.com/XPath/1.0/">
]>
<svg version="1.1" id="Capa_1" xmlns:x="&ns_extend;" xmlns:i="&ns_ai;" xmlns:graph="&ns_graphs;"
	 xmlns="http://www.w3.org/2000/svg" xmlns:xlink="http://www.w3.org/1999/xlink" xmlns:a="http://ns.adobe.com/AdobeSVGViewerExtensions/3.0/"
	 x="0px" y="0px" width="100%" height="100%" viewBox="0 188.5 612 408.721" enable-background="new 0 188.5 612 408.721"
	 xml:space="preserve">
<metadata>
	<sfw  xmlns="&ns_sfw;">
		<slices></slices>
		<sliceSourceBounds  height="402.441" width="612.009" bottomLeftOrigin="true" y="195.279" x="-0.504"></sliceSourceBounds>
	</sfw>
</metadata>
<g>
	<path d="M602.032,486.012h-0.184c-9.194,0-17.665-4.185-23.239-11.479c-9.385-12.282-23.623-19.327-39.064-19.327
		c-15.45,0-29.694,7.045-39.08,19.327c-5.015,6.565-12.367,10.6-20.479,11.347c13.616-24.346,21.795-51.244,24.091-79.151
		c4.665-3.034,8.766-6.84,12.225-11.373c5.587-7.299,14.059-11.486,23.244-11.486c9.177,0,17.643,4.185,23.226,11.481
		c9.387,12.281,23.631,19.326,39.078,19.326h0.185c5.505,0,9.968-4.462,9.968-9.968c0-5.505-4.463-9.967-9.968-9.967h-0.185
		c-9.185,0-17.657-4.189-23.243-11.501c-9.388-12.269-23.625-19.306-39.061-19.306c-13.419,0-25.928,5.318-35.142,14.767
		c-6.105-102.444-91.371-183.922-195.32-183.922c-107.9,0-195.684,87.784-195.684,195.684c0,0.837,0.024,1.671,0.035,2.507
		c-3.185,1.161-6.572,1.771-10.018,1.771c-9.187,0-17.65-4.187-23.224-11.495c-9.378-12.276-23.621-19.317-39.074-19.317
		c-15.451,0-29.692,7.042-39.071,19.317c-3.343,4.376-2.506,10.632,1.869,13.972c4.376,3.345,10.631,2.504,13.971-1.87
		c5.576-7.299,14.042-11.484,23.23-11.484s17.656,4.185,23.227,11.477c9.369,12.287,23.61,19.334,39.069,19.334
		c3.826,0,7.609-0.47,11.289-1.336c2.27,19.705,7.509,38.744,15.64,56.893c-1.299,1.351-2.53,2.784-3.688,4.3
		c-5.576,7.296-14.045,11.479-23.239,11.479c-9.195,0-17.659-4.182-23.223-11.477c-9.378-12.284-23.621-19.329-39.075-19.329
		c-15.453,0-29.694,7.046-39.072,19.329c-3.34,4.376-2.501,10.632,1.875,13.97c4.376,3.343,10.635,2.503,13.97-1.874
		c5.575-7.304,14.042-11.491,23.229-11.491s17.655,4.188,23.226,11.486c9.362,12.278,23.604,19.32,39.071,19.32
		c15.457,0,29.701-7.038,39.08-19.312c5.583-7.305,14.052-11.494,23.238-11.494c9.188,0,17.651,4.186,23.221,11.488
		c9.363,12.276,23.604,19.318,39.069,19.318c15.458,0,29.702-7.038,39.08-19.312c5.583-7.305,14.053-11.494,23.24-11.494
		c9.188,0,17.651,4.186,23.219,11.488c9.363,12.276,23.604,19.318,39.071,19.318c15.455,0,29.699-7.038,39.078-19.312
		c5.583-7.305,14.048-11.494,23.226-11.494s17.641,4.189,23.224,11.494l3.336,3.917c9.256,9.845,22.024,15.4,35.747,15.4
		c15.447,0,29.685-7.042,39.063-19.317c5.583-7.305,14.053-11.494,23.239-11.494c9.178,0,17.643,4.189,23.225,11.494
		c9.378,12.274,23.622,19.312,39.08,19.312h0.184c5.505,0,9.968-4.462,9.968-9.968C612.005,490.473,607.538,486.012,602.032,486.012
		z M460.078,480.467c-1.699-1.239-3.271-2.676-4.694-4.286c6.533-51.565,3.665-103.231-8.532-153.747l19.151-11.056
		c12.036,23.786,18.829,50.656,18.829,79.086C484.831,422.409,476.282,453.329,460.078,480.467z M456.004,294.131l-146.923,84.826
		l-45.028-25.997c50.205-37.708,105.014-68.771,163.156-92.521C438.159,270.398,447.84,281.724,456.004,294.131z M199.221,315.531
		c46.761-43.022,103.362-74.728,164.524-92.104c16.419,5.387,31.777,13.129,45.676,22.83
		c-58.514,24.916-113.609,57.121-164.067,95.908L199.221,315.531z M299.115,396.223v51.999
		c-57.785-24.658-112.11-56.633-161.764-95.157c3.189-14.657,8.207-28.636,14.81-41.687L299.115,396.223z M309.082,214.714
		c5.198,0,10.34,0.241,15.425,0.684c-53.125,20.03-102.049,50.588-143.337,89.711l-19.01-10.975
		C193.604,246.335,247.717,214.714,309.082,214.714z M251.264,474.531c-5.576,7.296-14.045,11.479-23.24,11.479
		c-9.194,0-17.658-4.182-23.219-11.474c-9.371-12.286-23.611-19.332-39.071-19.332c-6.517,0-12.812,1.267-18.625,3.639
		c-9.144-21.575-13.776-44.528-13.776-68.379c0-5.016,0.224-9.98,0.636-14.89c43.225,32.527,89.782,60.274,138.921,82.812
		C264.44,461.576,256.956,467.083,251.264,474.531z M329.414,474.539c-2.995-3.929-6.492-7.313-10.364-10.112v-68.206l44.98-25.969
		c4.53,36.602,6.303,73.705,5.283,110.554c-4.824,3.36-10.591,5.206-16.68,5.206C343.438,486.012,334.975,481.83,329.414,474.539z
		 M389.531,462.262c0.077-34.355-2.205-68.818-6.798-102.809l46.093-26.611c9.509,42,12.272,84.795,8.252,127.599
		c-6.751-3.406-14.287-5.235-22.141-5.235C405.791,455.205,397.074,457.693,389.531,462.262z"/>
	<path d="M602.032,577.283h-0.184c-9.194,0-17.665-4.185-23.239-11.479c-9.377-12.273-23.615-19.312-39.064-19.312
		c-15.458,0-29.702,7.039-39.08,19.312c-5.576,7.298-14.039,11.482-23.225,11.482s-17.649-4.185-23.226-11.482l-3.337-3.917
		c-9.254-9.841-22.021-15.396-35.743-15.396c-15.448,0-29.686,7.039-39.066,19.312c-5.575,7.296-14.044,11.479-23.237,11.479
		c-9.194,0-17.659-4.184-23.22-11.472c-9.361-12.278-23.604-19.32-39.071-19.32c-15.457,0-29.701,7.039-39.08,19.312
		c-5.576,7.296-14.044,11.479-23.239,11.479c-9.194,0-17.658-4.184-23.22-11.474c-9.363-12.276-23.604-19.318-39.071-19.318
		c-15.456,0-29.7,7.039-39.078,19.312c-5.576,7.296-14.045,11.479-23.24,11.479c-9.194,0-17.659-4.182-23.224-11.479
		c-9.379-12.277-23.622-19.317-39.074-19.317c-15.451,0-29.692,7.042-39.071,19.317c-3.343,4.376-2.505,10.631,1.87,13.971
		c4.376,3.345,10.631,2.505,13.971-1.869c5.576-7.299,14.042-11.483,23.23-11.483s17.656,4.185,23.226,11.476
		c9.362,12.278,23.604,19.32,39.071,19.32c15.458,0,29.702-7.038,39.08-19.312c5.576-7.296,14.045-11.479,23.238-11.479
		c9.195,0,17.659,4.184,23.221,11.474c9.363,12.276,23.604,19.318,39.069,19.318c15.457,0,29.701-7.038,39.08-19.312
		c5.576-7.296,14.045-11.479,23.239-11.479s17.659,4.182,23.22,11.474c9.363,12.276,23.604,19.318,39.07,19.318
		c15.456,0,29.7-7.038,39.079-19.312c5.575-7.296,14.04-11.479,23.226-11.479s17.648,4.186,23.224,11.479l3.337,3.917
		c9.254,9.845,22.023,15.398,35.746,15.398c15.446,0,29.685-7.04,39.063-19.315c5.575-7.296,14.045-11.479,23.239-11.479
		c9.184,0,17.65,4.186,23.224,11.479c9.379,12.274,23.623,19.312,39.08,19.312h0.185c5.505,0,9.967-4.462,9.967-9.968
		C611.998,581.745,607.538,577.283,602.032,577.283z"/>
</g>
</svg>
